<?xml version="1.0" standalone="no"?>
<!DOCTYPE svg PUBLIC "-//W3C//DTD SVG 1.1//EN" "http://www.w3.org/Graphics/SVG/1.1/DTD/svg11.dtd">
<svg xmlns="http://www.w3.org/2000/svg">
<metadata>Copyright (C) 2024 by original authors @ fontello.com</metadata>
<defs>
<font id="fontello" horiz-adv-x="1000" >
<font-face font-family="fontello" font-weight="400" font-stretch="normal" units-per-em="1000" ascent="850" descent="-150" />
<missing-glyph horiz-adv-x="1000" />
<glyph glyph-name="instagram" unicode="&#xe800;" d="M500 478c-71 0-128-57-128-128 0-71 57-128 128-128 71 0 128 57 128 128 0 71-57 128-128 128z m0-211c-46 0-83 37-83 83 0 46 37 83 83 83 46 0 83-37 83-83 0-46-37-83-83-83z m163 217c0-17-13-30-29-30-17 0-30 13-30 30 0 16 13 29 30 29 16 0 29-13 29-29z m85-31c-2 40-11 76-40 105-29 29-65 38-105 40-41 3-165 3-206 0-40-2-75-11-105-40-29-29-38-65-40-105-3-41-3-165 0-206 2-40 11-75 40-105 30-29 65-38 105-40 41-2 165-2 206 0 40 2 76 11 105 40 29 30 38 65 40 105 3 41 3 165 0 206z m-53-250c-9-22-26-39-48-48-32-13-111-10-147-10-36 0-114-3-147 10-22 9-39 26-48 48-13 33-10 111-10 147 0 36-3 115 10 147 9 22 26 39 48 48 33 13 111 10 147 10 36 0 115 3 147-10 22-9 39-26 48-48 13-32 10-111 10-147 0-36 3-114-10-147z" horiz-adv-x="1000" />

<glyph glyph-name="facebook" unicode="&#xe801;" d="M750 350c0 138-112 250-250 250-138 0-250-112-250-250 0-117 81-216 190-243v167h-52v76h52v33c0 85 38 124 122 124 16 0 43-3 54-6v-69c-6 1-16 1-29 1-41 0-57-15-57-56v-27h82l-14-76h-68v-172c124 15 220 120 220 248z" horiz-adv-x="1000" />

<glyph glyph-name="youtube" unicode="&#xe802;" d="M740 462c-6 21-23 38-45 44-39 11-195 11-195 11 0 0-156 0-195-11-22-6-39-23-45-44-10-40-10-121-10-121 0 0 0-82 10-122 6-21 23-38 45-43 39-11 195-11 195-11 0 0 156 0 195 11 22 5 39 22 45 43 10 40 10 122 10 122 0 0 0 81-10 121z m-291-196v149l131-74-131-75z" horiz-adv-x="1000" />

<glyph glyph-name="linkedin" unicode="&#xe803;" d="M362 100h-104v334h104v-334z m-52 379c-33 0-60 28-60 61 0 16 6 31 18 42 11 12 26 18 42 18 16 0 31-6 43-18 11-11 17-26 17-42 0-33-27-61-60-61z m440-379h-104v163c0 38 0 88-53 88-54 0-63-42-63-86v-165h-103v334h99v-46h2c14 27 47 54 98 54 105 0 124-69 124-159v-183h0z" horiz-adv-x="1000" />

<glyph glyph-name="x" unicode="&#xe804;" d="M321 600c-39 0-71-32-71-71v-358c0-39 32-71 71-71h358c39 0 71 32 71 71v358c0 39-32 71-71 71h-358z m332-94l-116-132 136-180h-106l-84 109-95-109h-53l124 141-131 171h109l76-100 87 100h53z m-42-281l-190 251h-31l191-251h30 0z" horiz-adv-x="1000" />

<glyph glyph-name="chevron-right" unicode="&#xe805;" d="M666 359c-2 20-10 38-24 53l-374 402c-17 20-43 33-71 36-28 2-56-6-77-23-22-17-35-41-36-67-2-26 8-51 27-70l315-340-315-340c-19-19-29-44-27-70 1-26 14-50 36-67 21-17 49-25 77-23 28 3 54 16 71 36l374 402c18 20 27 45 24 71z" horiz-adv-x="750" />

<glyph glyph-name="chevron-down" unicode="&#xe806;" d="M500 34l33 33 375 375 33 33-66 66-33-33-342-342-342 342-33 33-66-66 33-33 375-375 33-33v0z" horiz-adv-x="1000" />

<glyph glyph-name="download" unicode="&#xe807;" d="M47-88h-47v94h47 656 47v-94h-47-656z m362 265l-34-36-34 36-250 266-32 34 68 64 32-34 169-179v163 250 47h94v-47-250-163l169 179 32 34 68-64-32-34-250-266 0 0z" horiz-adv-x="750" />

<glyph glyph-name="pdf" unicode="&#xe808;" d="M143-150h714v298h-714v-298z m467 223h103v-31h-68v-33h56v-29h-56v-60h-35v153z m-164 0h57c12 0 23-2 33-6 9-4 17-10 24-17 6-6 11-14 14-24 3-9 5-19 5-29 0-12-2-22-6-32-3-9-8-17-15-24-7-6-15-11-24-15-9-4-20-6-31-6h-57v153z m-144 0h65c7 0 14-2 20-5 6-3 11-7 15-12 5-4 8-10 11-16 2-6 3-12 3-19 0-6-1-13-3-19-2-6-6-12-10-17-4-4-9-8-15-11-6-3-13-4-20-4h-31v-50h-35v153z m74-67c3 3 5 8 5 15 0 4-1 7-1 10-1 2-3 4-4 6-2 2-4 3-6 4-2 0-4 1-6 1h-27v-42h29c4 0 7 2 10 6z m279 808v-166h166l-166 166z m-72-238v274h-440v-631h714v357h-274z m-63-621c5 2 9 5 13 9 3 4 5 9 7 15 2 5 3 11 3 18 0 7-1 13-3 18-2 6-4 10-8 14-3 4-7 8-12 10-5 2-11 3-17 3h-22v-91h22c6 0 12 1 17 4z" horiz-adv-x="1000" />

<glyph glyph-name="store-fill" unicode="&#xe809;" d="M375-150c0 0 375 406 375 625 0 207-168 375-375 375-207 0-375-168-375-375 0-219 375-625 375-625z m0 750c33 0 65-13 88-37 24-23 37-55 37-88 0-33-13-65-37-88-23-24-55-37-88-37-33 0-65 13-88 37-24 23-37 55-37 88 0 33 13 65 37 88 23 24 55 37 88 37z" horiz-adv-x="750" />

<glyph glyph-name="events" unicode="&#xe80a;" d="M188 850v-125h-188v-187h875v187h-187v125h-125v-125h-250v125h-125z m687-375h-875v-625h875v625z" horiz-adv-x="875" />

<glyph glyph-name="search" unicode="&#xe80b;" d="M719 444c0 83-33 162-92 221-58 58-138 91-221 91-83 0-162-33-221-91-58-59-91-138-91-221 0-83 33-163 91-221 59-59 138-92 221-92 83 0 163 33 221 92 59 58 92 138 92 221z m-61-319c-69-55-156-87-252-87-224 0-406 181-406 406 0 224 182 406 406 406 225 0 407-182 407-406 0-96-33-183-88-252l261-262c19-18 19-48 0-66-18-18-48-19-66 0l-262 261z" horiz-adv-x="1000" />

<glyph glyph-name="iktissab" unicode="&#xe80c;" d="M375 443c1-7-4-13-10-13-7-1-12 3-13 10-1 6 3 12 10 13 0 0 0 0 0 0 6 1 12-4 13-10z m-8 91v-53h-82c-14 0-32-2-43 2-16 4-28 14-28 30 0 33 30 31 46 34-5 5-5 16-9 16-29 1-54-21-55-50 0-1 0-1 0-2 0-27 20-40 43-45 14-4 38-2 58-2h87v70h-17v0z m231 15c7 0 11 6 10 13-1 6-7 11-13 10-7-1-11-7-10-13 1-7 7-11 13-10z m-25 0c7 0 11 6 10 13-1 6-7 11-13 10-7-1-11-7-10-13 1-7 6-11 13-10h0z m45-86h126c23 0 43 12 43 37 0 26-20 34-43 34h-81l105 45 4 21-123-53c-24-10-20-30 0-30h93c0 0 26 1 26-17 0-16-12-20-26-20h-146v54h-17v-54h-35v73l-17-9v-63h-19v71l-17-9v-62h-17v66l-17-8v-59h-36v119h-17v-136h214z m209 136h-17v-136h17v136z m-600-310c0-30 0-30 20-31l1-1v-4c0-1-3-1-5-1-3 0-16 1-24 1-10 0-20-1-30-1-1 0-1 1-1 3 0 2 1 3 6 3 14 0 15 3 15 18v96c0 12-4 15-20 15l-1 0 0 4c0 2 2 2 3 2 5 0 11-1 25-1 10 0 22 1 30 1l1-1v-4l-1-1-5 0c-8-1-14-2-14-11v-87h0z m51 94c0 3-2 5-4 6l-7 4c0 0 0 1 0 3 0 1 1 1 4 2l9 4c4 2 8 4 12 7l1-1c0-8 0-16 0-24v-84h0c8 6 16 12 23 19 7 6 9 8 9 11 0 3-9 3-11 3-1 0-2 1-2 2v3c0 0 1 1 1 1h1c6 0 12-1 19-1 8 0 15 1 23 1 1 0 1-1 1-1v-4c0 0-1-1-1-1l-9 0c-5-1-7-2-16-11l-12-10c-1-1-2-2-2-3l30-38c2-4 5-7 8-10 2-2 6-4 9-4 2 0 2-1 2-1 0-1 0-4-1-4-2 0-15 1-22 1-7 0-12-1-23-1-1 0-2 0-2 0 0 1 0 5 1 5 3 0 13 0 13 5 0 2-2 6-7 11l-21 27h-1l-9-7c-1 0-1-1-1-2v-20c0-8 0-13 9-14l4 0c1 0 1-1 1-1v-4c0-1 0-1-1-1-7 0-14 1-21 1-3 0-19-1-21-1 0 0-1 1-1 1v4c0 1 1 1 1 1 10 1 14 1 14 11l0 115z m109-60c0 6-3 6-10 6-2 0-3 0-3 3 0 3 2 4 4 5 8 6 15 13 22 20 2 0 3-1 3-2 0-6-1-11-1-16h25c3 0 3-1 3-5 0-4-1-4-2-4h-26v-53c0-9 2-17 12-17 7 1 12 5 14 11l4-3c-3-11-13-19-24-20-11 0-21 7-21 19l0 56z m84-56c0-5 0-10 14-10 0 0 0-1 0-3 0-1 0-2 0-2-8 0-17 1-21 1-7 0-15-1-22-1-1 0-1 0-1 1v2c0 2 0 2 3 2 9 0 12 1 12 11v41c0 13 0 13-8 17-3 1-6 2-6 4 0 1 2 2 10 5l15 6c1 0 2 0 3 1 2 0 2-2 2-4 0-9-1-19-1-29v-42z m-8 134c6 0 11-5 11-11 0-6-5-11-11-12-6 0-12 5-12 12v0c0 6 5 11 12 11z m92-85h-5c-3 9-7 19-18 19-9 0-16-5-16-14 0-8 10-13 21-19 10-5 21-12 21-25 0-18-16-29-32-29-13 0-26 6-26 9l-1 19 6 0c0-1 1-2 1-4 3-9 11-16 20-17 9-1 16 6 17 14 0 1 0 2 0 3 0 6-10 13-15 16-11 6-26 13-26 28 0 17 15 25 30 25 9 0 17-2 24-6l-1-19z m78 0h-5c-2 9-7 19-18 19-9 0-16-5-16-14 0-8 11-13 21-19 10-5 21-12 21-25 0-18-16-29-32-29-13 0-26 6-26 9l-1 19 6 0c0-1 1-2 1-3 3-10 11-17 20-18 9-1 16 6 17 14 0 1 0 2 0 3 0 6-10 13-14 16-12 6-27 13-27 28 0 17 15 25 30 25 9 0 17-2 24-6l-1-19z m68-7c0 11-1 19-16 19-5 0-15-1-15-7 0-2 0-3 1-5l-13-7c-1 2-1 4-1 6 0 7 6 12 10 14l18 11c3 1 4 2 4 2 17 0 26-8 26-25v-42c0-5 0-13 6-13 4 0 5 1 7 5l4-1c-2-10-7-17-16-17-8 0-15 7-15 15 0 1 0 1 0 2-8-8-17-17-29-17-12 0-18 15-18 24 0 3 4 10 20 16l27 10 0 10z m0-15l-20-10c-2-1-10-5-10-10 0-5 3-16 10-16 6 0 13 7 18 12l2 2 0 22z m51 89c0 3-1 5-4 6l-6 4c-1 0-1 1-1 3 0 1 1 1 4 2l9 4c4 2 11 7 12 7 1 0 2-1 2-1 0-8-1-16-1-24v-55c9 6 18 13 29 13 25 0 40-21 40-45 0-26-24-48-51-48-7 0-15 7-22 7-5 0-5-3-7-6h-4c0 4 0 8 0 13l0 120z m16-101c-1-14 9-25 23-25 0 0 1 0 1 0 21 0 28 20 28 37 0 20-12 38-33 38-7-1-14-3-20-8l1-42z m-451-167c-3-8-8-13-13-13-5 1-9 2-13 4-7 3-11 6-11 8 0 0 0 1 1 1h1c3-2 8-3 12-4 5 2 10 4 13 9 6 5 9 9 9 12 0 2-3 7-10 15 0 3 2 8 5 13 3-3 6-7 9-11 2-4 3-9 3-14 0-7-2-14-6-20z m38 9h-19l-4 53c1 2 2 4 4 6 1 2 3 4 4 6l2-24c0-8 1-16 3-24 0-2 1-2 4-2h6v-15z m56 7l-19 1c-4 0-8-2-11-4-3-2-7-3-10-4h-21v15h21c4-1 8 0 11 2-5 4-10 6-17 6-1 1-3 0-4-1-1-1-2-1-3-2 2 4 4 8 7 11 2 4 6 6 10 6 7-1 14-4 20-8 8-4 16-8 24-9l-8-13z m-27 42c-2-2-4-3-5-4-2 1-4 2-5 4-3 2-4 3-4 4 0 1 1 2 3 5 2 2 3 3 5 4 6-5 9-8 9-9 0-1-1-2-3-4z m74-49h-30l1 15h24c0 0 0 0 0 0 0 4-2 7-5 9-2 3-6 6-9 7l4 15c12-5 19-17 19-30 0-11-2-16-4-16z m34-11c0-1-1-3-2-4-5 0-10-2-14-6 1 3 3 4 5 6-2 0-3 1-5 2 0 3 1 5 2 7 2 2 4 4 7 4 1 0 1-1 2-1 1-1 1-2 1-2 0-1 0-1-1-2l-1-2-3 3c-1 0-2-1-4-2 2-2 4-3 7-3l6 0z m-12 10l-5 43c2 6 5 12 9 18 2-13 3-26 3-38 1-9-2-17-7-23z m67-8c-4-9-9-14-15-14-13 0-21 2-26 5v1c3 1 6 1 9 1 2 0 5 1 8 1 5 2 9 5 13 9 4 3 7 7 10 12 0 1 0 2 0 4 0 0 0 1 0 1-1-2-2-5-3-7-2-2-5-3-7-2-6 0-9 4-9 11 1 5 2 10 5 15 2 5 5 8 10 10 4-1 7-5 8-9 2-4 3-9 3-14 0-8-2-16-6-24z m-5 26c0 3-2 6-4 6-3 0-5-3-5-5 1-1 3-2 5-2 2 0 3 0 4 1v0z m106-17h-9c-2 0-4 1-5 3-1 1-2 3-2 5v0l-5-8c-1 0-3 0-6 0-3 0-6 0-8 0-4-1-8 0-12 2-2-6-5-11-8-16-5-6-9-9-13-9-5 1-10 3-15 6-7 3-11 7-11 10h1c3-4 8-6 12-6 6 1 12 4 16 8 7 5 10 9 10 12 0 2-1 5-3 6l-4 6 7 13c1-1 3-3 4-6 1-2 3-5 5-7 2-3 4-4 7-4h21c0 2 0 4 0 6 0 2 0 4 1 6 1 2 2 4 4 6l5 5c0-1 0-2 0-3 0-2 0-4-1-7-1-3-1-6-1-7 0-3 1-5 4-5 2-1 4-1 6-1l0-15z m-4-15c-1-1-2-3-3-5-2-3-3-4-3-4-4 2-7 4-10 7-1-2-3-4-5-6-4 1-7 3-10 6l7 9c3-3 6-4 9-6 1 1 2 2 3 3l3 3 9-7z m38 15h-39v15h34v0c0 2 0 3-1 5 0 2 0 3-1 5-3-5-7-7-12-7-3 0-6 1-8 2-3 2-4 4-4 7 0 6 3 11 7 15 3 4 8 8 13 8 4 0 8-4 11-12 2-6 3-12 3-18 1-7 0-14-3-20z m-26 50c-2 0-3 2-5 3-2 2-3 3-3 4 0 1 1 2 3 5 3 2 4 4 5 4 0 0 4-3 9-9 0-1-3-4-9-7z m9-12c-1 0-3-1-5-3 2-2 4-3 7-4 1 0 3 1 4 1-3 4-5 6-6 6z m67-38h-9c-2-6-5-10-8-15-3-4-8-7-13-8-4 1-9 2-12 3-4 2-8 4-10 7v1c0 1 0 1 1 1 2 0 3-1 5-1 2-1 4-1 5-1 5 0 9 1 13 4 4 2 8 5 11 8-4 0-7 1-11 2-4 1-6 5-6 8 0 6 2 12 5 17 3 7 7 11 10 11 6 0 10-8 12-23h7l0-14z m-19 20c-1 2-2 3-3 3-2 0-2 0-3-1-1-2-1-2-1-3v-1c1-2 4-4 7-4 1 0 2 1 3 1l-3 5z m47-21h-32v15h27c-1 6-4 11-8 16l7 14c6-7 10-15 10-24 0-7-2-14-4-21z m5 58c-2-3-5-6-8-9l-10 6-6-5c-4 1-7 3-11 6l8 9c3-2 6-4 10-6l6 6 11-7z" horiz-adv-x="1000" />

<glyph glyph-name="flyer" unicode="&#xe80d;" d="M688 475h-282-31v31 282h-312v-876h625v563z m-11 63l-239 239v-239h239z m-614 312h390l297-297v-641-62h-62-625-63v62 876 62h63z" horiz-adv-x="750" />

<glyph glyph-name="left-arrow" unicode="&#xe80e;" d="M442 490l30-29-91-90h299v-42h-299l91-90-30-29-142 140 142 140z" horiz-adv-x="1000" />

<glyph glyph-name="arrow" unicode="&#xe80f;" d="M805 830l-101-100 309-308h-1013v-144h1013l-309-308 101-100 481 480-481 480z" horiz-adv-x="1286" />

<glyph glyph-name="store-locator" unicode="&#xe810;" d="M656 475c0 155-126 281-281 281-155 0-281-126-281-281 0-32 15-82 48-147 32-63 76-130 121-192 40-55 80-104 112-143 32 39 72 88 112 143 45 62 89 129 121 192 33 65 48 115 48 147z m94 0c0-162-206-428-313-554-37-44-62-71-62-71 0 0-25 27-62 71-107 126-313 392-313 554 0 207 168 375 375 375 207 0 375-168 375-375z m-312 0c0 17-7 33-19 44-11 12-27 19-44 19-17 0-32-7-44-19-12-11-18-27-18-44 0-17 6-32 18-44 12-12 27-18 44-18 17 0 33 6 44 18 12 12 19 27 19 44z m-219 0c0 41 16 81 46 111 29 29 69 45 110 45 41 0 81-16 111-45 29-30 45-70 45-111 0-41-16-81-45-110-30-30-70-46-111-46-41 0-81 16-110 46-30 29-46 69-46 110z" horiz-adv-x="750" />

<glyph glyph-name="right-arrow" unicode="&#xe811;" d="M558 490l-30-29 91-90h-299v-42h299l-91-90 30-29 142 140-142 140z" horiz-adv-x="1000" />

<glyph glyph-name="link-arrow" unicode="&#xe812;" d="M641 663h47v-47-469-47h-94v47 356l-436-436-33-33-66 66 33 33 436 436h-356-47v94h47 469z" horiz-adv-x="750" />

<glyph glyph-name="shareholdermeeting" unicode="&#xe813;" d="M438 350c-67 0-130 26-177 73-47 47-73 111-73 177 0 66 26 130 73 177 47 47 110 73 177 73 66 0 129-26 176-73 47-47 74-111 74-177 0-66-27-130-74-177-47-47-110-73-176-73z m-30-202l-64 108h94 93l-64-108 65-242 78 319h140l125-375h-328-29-161-29-328l125 375h140l78-319 65 242z" horiz-adv-x="875" />

<glyph glyph-name="news" unicode="&#xe814;" d="M188 788h62 688 62v-63-750-63h-62-625-63-94-93-63v63 625 63h125v-63-562h31 32v687 63z m125-125v-250h312v250h-312z m437 0v-63h31 63 31v63h-31-63-31z m0-188v-62h31 63 31v62h-31-63-31z m-437-187v-63h31 500 31v63h-31-500-31z m0-188v-62h31 500 31v62h-31-500-31z" horiz-adv-x="1000" />

<glyph glyph-name="awarenessprogram" unicode="&#xe815;" d="M859 850h-27l-18-20-68-72c-94-101-226-158-365-158h-6-62-313v-437h125v-313h250v313h6c139 0 271-58 365-158l68-73 18-20h28 15 63v63 288c36 18 62 64 62 118 0 55-26 101-62 118l0 289v62h-63-16z m-46-202v-267-266c-116 110-271 173-432 173h-6v187h6c161 0 316 62 432 173z" horiz-adv-x="1000" />

<glyph glyph-name="employeeservices" unicode="&#xe816;" d="M270 850c40 0 78-16 106-44 28-28 44-66 44-106 0-40-16-78-44-106-28-28-66-44-106-44-40 0-78 16-106 44-28 28-44 66-44 106 0 40 16 78 44 106 28 28 66 44 106 44z m690 0c40 0 78-16 106-44 28-28 44-66 44-106 0-40-16-78-44-106-28-28-66-44-106-44-40 0-78 16-106 44-28 28-44 66-44 106 0 40 16 78 44 106 28 28 66 44 106 44z m-870-360h278c-5-19-8-39-8-60 0-72 32-136 81-180h-441l90 240z m1110-240h-441c50 44 81 108 81 180 0 21-3 41-7 60h277l90-240z m-780 180c0 48 19 94 53 127 34 34 79 53 127 53 48 0 94-19 127-53 34-33 53-79 53-127 0-48-19-93-53-127-33-34-79-53-127-53-48 0-93 19-127 53-34 34-53 79-53 127z m450-240l90-300h-720l90 300h540z" horiz-adv-x="1200" />

<glyph glyph-name="branches" unicode="&#xe817;" d="M121 435c5-2 10-3 15-5 5-1 11-2 16-3 8-1 15-1 23-1 24 0 47 5 67 14v-317h607v317c10-5 21-8 32-10 5-2 11-2 17-3 5-1 12-1 18-1 7 0 15 1 23 2 10 1 21 4 31 7v-312-243h-849v243 312z m788 415l128-197c56-88 7-212-98-226-8-1-15-1-23-1-50 0-94 21-124 55-30-34-74-55-123-55-50 0-94 21-124 55-30-34-74-55-123-55-50 0-94 21-124 55-30-34-74-55-123-55-8 0-16 0-23 1-105 14-155 138-99 226l129 197h727z" horiz-adv-x="1091" />

<glyph glyph-name="investors" unicode="&#xe818;" d="M0 350v-500h1000v500h-1000z m94-94h94c0-51-42-93-94-93v93z m0-218c52 0 94-43 94-94h-94v94z m531 62c0-33-13-65-37-88-23-24-55-37-88-37-33 0-65 13-88 37-24 23-37 55-37 88 0 33 13 65 37 88 23 24 55 37 88 37 33 0 65-13 88-37 24-23 37-55 37-88z m188 156h93v-93c-51 0-93 42-93 93z m0-312c0 51 42 94 93 94v-94h-93z m-125 906h-63v-125h63 36l-165-165-175 150-40 35-41-35-219-187 82-95 178 152 178-152 44-38 41 41 206 206v-37-62h125v62 188 62h-63-187z" horiz-adv-x="1000" />

<glyph glyph-name="businessreport" unicode="&#xe819;" d="M438 850h-438v-1000h750v688h-312v312z m62 0v-250h250l-250 250z m-344-125h125 32v-62h-32-125-31v62h31z m0-125h125 32v-62h-32-125-31v62h31z m0-187h438 31v-32-187-31h-31-438-31v31 187 32h31z m32-188h375v125h-375v-125z m281-187h125 31v-63h-31-125-31v63h31z" horiz-adv-x="750" />

<glyph glyph-name="offers" unicode="&#xe81a;" d="M592 723l295-295v-156l-295-295 66-67 309 310 14 13v20 194 19l-14 14-309 310-66-67z m-592 65v-438l438-438 375 376v125l-375 375h-438z m219-157c16 0 32-6 44-18 12-12 18-28 18-44 0-17-6-33-18-44-12-12-28-19-44-19-17 0-33 7-44 19-12 11-19 27-19 44 0 16 7 32 19 44 11 12 27 18 44 18z" horiz-adv-x="1000" />

<glyph glyph-name="history" unicode="&#xe81b;" d="M63 725c41 0 83 0 125 0 125 0 250 0 375 0h125v-125-26l-19-18-205-206 205-206 19-18v-26-125h-125v99l-188 187-187-187v-99h-125v125 26l18 18 206 206-206 206-18 18v26 125z m0-875h-63v125h63 625 62v-125h-62-625z m0 875h-63v125h63 625 62v-125h-62-625z" horiz-adv-x="750" />

<glyph glyph-name="financialinformations" unicode="&#xe81c;" d="M930 490c9 0 17 0 26-1-29 204-204 361-416 361-17 0-30-14-30-31v-419h194c59 56 138 90 226 90z m-330-330c0 54 13 105 36 150h-216v415c0 35-29 62-63 55-204-43-357-223-357-440 0-249 202-450 450-450 82 0 159 22 225 60-47 57-75 130-75 210z m600 0c0 72-28 140-79 191-51 51-119 79-191 79-72 0-140-28-191-79-51-51-79-119-79-191 0-72 28-140 79-191 51-51 119-79 191-79 72 0 140 28 191 79 51 51 79 119 79 191z m-313 61c-1-1-2-3-2-7 0 0 0 0 0 0 0-1 0-3 9-8 11-6 25-10 45-16h0c18-4 40-11 57-21 20-11 38-30 39-61 1-34-18-57-41-69-11-6-23-9-34-12v-20c0-16-14-30-30-30-17 0-30 14-30 30v22c-16 3-31 8-45 12-3 1-6 2-9 3-16 5-25 22-20 37 5 16 22 25 38 20 4-1 7-2 11-3 21-7 38-12 56-13 12 0 26 2 34 7 5 2 7 4 8 6 1 1 2 4 2 8 0 3-1 6-9 11-10 6-24 10-43 15l-4 1c-17 5-37 11-53 20-19 10-39 27-41 57-2 36 19 58 41 70 11 6 22 10 34 12v18c0 16 13 30 30 30 16 0 30-14 30-30v-18c11-2 23-4 33-7 16-4 26-20 22-36-4-16-20-26-36-22-18 4-34 7-50 7-11 1-25-2-35-7-4-2-7-5-8-6l1 0z" horiz-adv-x="1200" />

<glyph glyph-name="minusicon" unicode="&#xe81d;" d="M729 350h-26-406-26v42h26 406 26v-42z" horiz-adv-x="1000" />

<glyph glyph-name="plusicon" unicode="&#xe81e;" d="M524 534v24h-48v-24-160h-160-24v-48h24 160v-160-24h48v24 160h160 24v48h-24-160v160z" horiz-adv-x="1000" />

<glyph glyph-name="triangle" unicode="&#xe81f;" d="M526 756l433-750h-866l433 750z" horiz-adv-x="1042" />

<glyph glyph-name="calendar-alt" unicode="&#xe820;" d="M297 803v47h-94v-47-78h-203v-156-94-531-94h94 687 94v94 531 94 156h-203v78 47h-94v-47-78h-281v78z m-203-328h687v-531h-687v531z" horiz-adv-x="875" />

<glyph glyph-name="close" unicode="&#xe821;" d="M798 584l33 33-67 66-33-33-232-232-233 232-33 33-66-66 33-33 233-233-233-232-33-33 66-66 33 33 233 232 232-232 33-34 67 67-34 33-232 232 233 233z" horiz-adv-x="1000" />

<glyph glyph-name="signup" unicode="&#xe822;" d="M305 709h36 318 36v-36-107h196v-240h-293-196-293v240h196v107 36z m-196-431h293v-96h196v96h293v-287h-782v287z m513 360h-244v-72h244v72z" horiz-adv-x="1000" />

<glyph glyph-name="website" unicode="&#xe823;" d="M94 694h812v-703h-812v703z m254-113v-76h457v76h-457z m-51 12h-102v-100h102v100z" horiz-adv-x="1000" />

<glyph glyph-name="card" unicode="&#xe824;" d="M922 694h-844v-148h844v148z m0-295h-844v-393h844v393z m-563-196v-49h-140v49h140z m47 0h235v-49h-235v49z" horiz-adv-x="1000" />

<glyph glyph-name="coupon" unicode="&#xe825;" d="M67 239l544 544 121-121c-23-22-23-59-1-81 22-22 59-22 81 1l121-121-544-544-322 322z m434 327c-3 4-8 6-13 6-5 0-10-2-14-6-3-4-5-8-5-14 0-5 2-9 5-13 4-4 9-6 14-6 5 1 10 3 13 6 4 4 6 9 6 14 0 5-2 10-6 13z m54-54c-3 4-8 6-13 6-5 0-10-2-14-6-4-3-6-8-6-13 0-5 2-10 6-14 3-3 8-5 13-5 5 0 10 2 14 5 4 4 6 9 6 14 0 5-2 10-6 13z m54-80c3 3 5 8 5 13 0 5-2 10-5 14-4 3-9 5-14 5-5 0-10-2-13-5-4-4-6-9-6-14 0-5 2-10 6-13 3-4 8-6 13-6 5 0 10 2 14 6z m53-27c-3 4-8 6-13 6-5 0-10-2-14-6-3-4-5-9-5-14 0-5 2-10 5-13 4-4 9-6 14-6 5 0 10 2 13 6 4 4 6 9 6 14 0 5-2 10-6 13z m54-81c4 4 6 9 6 14 0 5-2 10-6 13-3 4-8 6-13 6-5 0-10-2-14-6-3-3-5-8-6-13 0-5 2-10 6-14 4-3 8-5 13-5 6 0 10 2 14 5z" horiz-adv-x="1000" />

<glyph glyph-name="mail" unicode="&#xe826;" d="M0 725h1000v-156l-500-344-500 344v156z m0-750v518l465-320 35-24 35 25 465 319v-518h-1000z" horiz-adv-x="1000" />

<glyph glyph-name="whatsapp" unicode="&#xe827;" d="M846 705c-92 94-218 145-348 145-274 0-495-223-493-496 0-86 25-169 65-245l-70-256 261 68c73-41 154-59 235-59 272 0 492 223 492 495 0 132-51 256-142 348z m-348-760c-72 0-145 19-207 57l-16 8-156-41 40 154-11 16c-118 191-62 444 132 563 194 118 445 62 563-132 119-194 62-444-132-563-62-40-137-62-213-62v0z m237 299l-29 14c0 0-43 18-70 32-3 0-6 3-8 3-9 0-14-3-19-6 0 0-3-3-41-46-2-5-8-8-13-8h-3c-3 0-8 3-11 6l-13 5c-30 14-57 30-78 51-6 6-14 11-19 16-19 19-38 41-51 65l-3 5c-3 3-3 6-5 11 0 6 0 11 2 14 0 0 11 13 19 21 6 6 8 14 14 19 5 8 8 19 5 27-3 13-35 86-43 102-5 8-11 11-19 14h-29c-6 0-11-3-17-3l-2-3c-6-2-11-8-16-10-6-6-9-11-14-17-19-24-30-53-30-83 0-22 6-43 14-62l3-8c24-51 56-97 99-137l11-11c8-8 16-14 22-22 56-48 121-83 193-102 9-3 19-3 27-5h27c14 0 30 5 41 10 8 6 13 6 19 11l5 5c5 6 11 9 16 14 6 5 11 11 14 16 5 11 8 24 10 38v19c0 0-2 2-8 5z" horiz-adv-x="1000" />

<glyph glyph-name="print" unicode="&#xe828;" d="M688 850l187-187v-563h-562v750h375z m-563-250h125v-125h-125v-500h375v63h125v-63-125h-125-375-125v125 500 125h125z" horiz-adv-x="875" />

<glyph glyph-name="angle-down" unicode="&#xf107;" d="M600 439q0-7-6-12l-260-261q-5-5-13-5t-12 5l-260 261q-6 5-6 12t6 13l28 28q5 6 12 6t13-6l219-219 220 219q5 6 13 6t12-6l28-28q6-5 6-13z" horiz-adv-x="642.9" />

<glyph glyph-name="youtube-play" unicode="&#xf16a;" d="M397 221l270 139-270 141v-280z m103 481q94 0 181-3t128-5l41-2q0 0 9-1t13-2 13-2 16-5 16-7 17-11 16-15q4-3 9-10t16-33 15-56q4-36 7-76t3-64v-98q1-81-10-162-4-30-14-55t-18-35l-8-9q-7-8-16-15t-17-10-16-7-16-5-13-2-13-2-9-1q-140-11-350-11-115 2-201 4t-111 4l-28 3-20 2q-20 3-30 5t-29 12-31 23q-4 3-9 10t-16 33-15 56q-4 36-7 76t-3 64v98q-1 81 10 162 4 31 14 55t18 35l8 9q8 9 16 15t17 11 16 7 16 5 13 2 13 2 9 1q140 10 350 10z" horiz-adv-x="1000" />
</font>
</defs>
</svg>
