<svg width="16" height="16" viewBox="0 0 16 16" fill="none" xmlns="http://www.w3.org/2000/svg">
<g id="Frame" clip-path="url(#clip0_17897_5161)">
<path id="Vector" d="M5.80188 3.43963C6.13306 2.54279 6.99472 1.9068 8.00293 1.9068C9.01114 1.9068 9.8728 2.54279 10.204 3.43963C10.2978 3.69461 10.5322 3.87339 10.8048 3.89683C11.0774 3.92028 11.3382 3.78546 11.473 3.54807C11.7163 3.12603 12.1735 2.84467 12.6923 2.84467C13.4689 2.84467 14.0991 3.47479 14.0991 4.25147C14.0991 4.57093 14.0141 5.07503 13.8617 5.69344C13.7122 6.29719 13.5129 6.95956 13.3107 7.58089C13.1084 8.20223 12.9062 8.77081 12.7538 9.18699C12.7245 9.26612 12.6981 9.34232 12.6717 9.40973H11.0686L11.7485 5.50293C11.7925 5.24795 11.6225 5.00469 11.3675 4.96073C11.1125 4.91676 10.8693 5.08675 10.8253 5.34174L10.1161 9.40973H8.47186V5.18933C8.47186 4.93142 8.26084 4.7204 8.00293 4.7204C7.74502 4.7204 7.534 4.93142 7.534 5.18933V9.40973H5.8898L5.18347 5.34467C5.13951 5.08968 4.89625 4.9197 4.64127 4.96366C4.38628 5.00762 4.2163 5.25088 4.26026 5.50586L4.93728 9.40973H3.33118C3.30481 9.34232 3.27843 9.26612 3.24912 9.18699C3.09672 8.77081 2.89449 8.1993 2.69226 7.58089C2.49004 6.95956 2.29074 6.29719 2.14127 5.69344C1.99179 5.07503 1.9068 4.57093 1.9068 4.25147C1.9068 3.47479 2.53693 2.84467 3.3136 2.84467C3.83236 2.84467 4.28957 3.12603 4.53283 3.54807C4.67057 3.78546 4.93142 3.92028 5.20106 3.89683C5.47069 3.87339 5.70809 3.69461 5.80188 3.43963ZM13.8177 10.3681L13.1612 10.1131C13.8177 10.3681 13.8177 10.3681 13.8177 10.3681V10.3652L13.8206 10.3564L13.8353 10.3183C13.847 10.286 13.8646 10.2392 13.888 10.1776C13.9349 10.0574 13.9994 9.88159 14.0756 9.67057C14.231 9.24267 14.439 8.65651 14.6471 8.01759C14.8552 7.37866 15.0662 6.67819 15.2245 6.03048C15.3798 5.39449 15.5 4.75557 15.5 4.2544C15.5 2.70106 14.2397 1.4408 12.6864 1.4408C12.0533 1.4408 11.4672 1.65182 10.9982 2.00352C10.3212 1.0891 9.23095 0.5 8.00293 0.5C6.77491 0.5 5.68464 1.0891 5.00176 2.00059C4.53283 1.64889 3.94666 1.43787 3.3136 1.43787C1.76026 1.43787 0.5 2.69812 0.5 4.25147C0.5 4.75264 0.620164 5.39156 0.775498 6.02755C0.933763 6.67819 1.14478 7.37573 1.35287 8.01465C1.56096 8.65358 1.76905 9.24267 1.92438 9.66764C2.00352 9.88159 2.068 10.0545 2.11196 10.1747C2.1354 10.2362 2.15299 10.2831 2.16471 10.3154L2.17937 10.3535L2.1823 10.3623V10.3652C2.1823 10.3652 2.1823 10.3652 2.8388 10.1102L2.1823 10.3652C2.29367 10.6377 2.55451 10.8165 2.84467 10.8165H13.1612C13.4513 10.8165 13.7122 10.6377 13.8177 10.3681ZM2.37573 11.7544V13.6301C2.37573 14.6647 3.21688 15.5059 4.25147 15.5059H11.7544C12.789 15.5059 13.6301 14.6647 13.6301 13.6301V11.7544H12.2233V13.6301C12.2233 13.888 12.0123 14.0991 11.7544 14.0991H4.25147C3.99355 14.0991 3.78253 13.888 3.78253 13.6301V11.7544H2.37573Z" fill="#319659"/>
</g>
<defs>
<clipPath id="clip0_17897_5161">
<rect width="15" height="15" fill="white" transform="translate(0.5 0.5)"/>
</clipPath>
</defs>
</svg>
