<svg width="16" height="16" viewBox="0 0 16 16" fill="none" xmlns="http://www.w3.org/2000/svg">
<g id="Frame" clip-path="url(#clip0_17897_4343)">
<path id="Vector" d="M7.29688 1.20312C7.29688 0.813477 7.61035 0.5 8 0.5C12.1426 0.5 15.5 3.85742 15.5 8C15.5 12.1426 12.1426 15.5 8 15.5C3.85742 15.5 0.5 12.1426 0.5 8C0.5 6.88965 0.740234 5.83789 1.17383 4.8916C1.34961 4.50488 1.55762 4.13574 1.79492 3.79004C1.79492 3.78711 1.79785 3.78711 1.79785 3.78418C2.06445 3.3916 2.36328 3.02832 2.69727 2.69727C2.97266 2.42188 3.41797 2.42188 3.69043 2.69727C3.96289 2.97266 3.96582 3.41797 3.69043 3.69043C3.4209 3.95996 3.1748 4.25586 2.95801 4.57227C2.95801 4.5752 2.95508 4.5752 2.95508 4.57812C2.33398 5.49219 1.95312 6.58496 1.90918 7.7627C1.90625 7.8418 1.90332 7.9209 1.90332 8C1.90332 11.3662 4.63086 14.0938 7.99707 14.0938C11.3633 14.0938 14.0908 11.3662 14.0908 8C14.0908 4.87109 11.7354 2.2959 8.7002 1.94727V3.54688C8.7002 3.93652 8.38672 4.25 7.99707 4.25C7.60742 4.25 7.29395 3.93652 7.29395 3.54688V1.20312H7.29688ZM5.1582 5.1582C5.43359 4.88281 5.87891 4.88281 6.15137 5.1582L8.49512 7.50195C8.77051 7.77734 8.77051 8.22266 8.49512 8.49512C8.21973 8.76758 7.77441 8.77051 7.50195 8.49512L5.1582 6.15137C4.88281 5.87598 4.88281 5.43066 5.1582 5.1582Z" fill="#319659"/>
</g>
<defs>
<clipPath id="clip0_17897_4343">
<rect width="15" height="15" fill="white" transform="translate(0.5 0.5)"/>
</clipPath>
</defs>
</svg>
