<svg width="28" height="32" viewBox="0 0 28 32" fill="none" xmlns="http://www.w3.org/2000/svg">
<g id="Icon">
<path id="Vector" d="M0 5.5C0 4.66875 0.66875 4 1.5 4H26.5C27.3312 4 28 4.66875 28 5.5C28 6.33125 27.3312 7 26.5 7H1.5C0.66875 7 0 6.33125 0 5.5ZM0 15.5C0 14.6687 0.66875 14 1.5 14H26.5C27.3312 14 28 14.6687 28 15.5C28 16.3313 27.3312 17 26.5 17H1.5C0.66875 17 0 16.3313 0 15.5ZM28 25.5C28 26.3312 27.3312 27 26.5 27H1.5C0.66875 27 0 26.3312 0 25.5C0 24.6688 0.66875 24 1.5 24H26.5C27.3312 24 28 24.6688 28 25.5Z" fill="#007D39"/>
</g>
</svg>
