<svg width="65" height="72" viewBox="0 0 65 72" fill="none" xmlns="http://www.w3.org/2000/svg">
<g id="Frame" clip-path="url(#clip0_16761_4482)">
<path id="Vector" d="M71.9634 11.25C71.9634 13.7812 69.9535 16.1156 66.5661 18C62.476 20.2641 56.3759 21.8672 49.3762 22.3453C48.8562 22.0922 48.3361 21.8531 47.7879 21.6422C42.2501 19.3219 34.885 18 26.9858 18C25.8192 18 24.6807 18.0281 23.5422 18.0844C23.4859 18.0562 23.4438 18.0281 23.3876 18C20.0002 16.1156 17.9902 13.7812 17.9902 11.25C17.9902 5.03437 30.078 0 44.9768 0C59.8757 0 71.9634 5.03437 71.9634 11.25ZM58.4701 47.9953V39.1078C61.1407 38.5172 63.6004 37.7719 65.7931 36.8578C68.0841 35.9016 70.2206 34.7203 71.9634 33.2719V38.25C71.9634 42.4125 66.538 46.0547 58.4701 47.9953ZM58.4701 34.4953V33.75C58.4701 30.6703 56.9803 28.1391 55.0828 26.2406C59.0605 25.6219 62.7009 24.6375 65.7931 23.3578C68.0841 22.4016 70.2206 21.2203 71.9634 19.7719V24.75C71.9634 27.2812 69.9535 29.6156 66.5661 31.5C66.3131 31.6406 66.0601 31.7672 65.7931 31.9078C63.741 32.9484 61.2672 33.8203 58.4561 34.4953H58.4701Z" fill="#E1E1E1"/>
<path id="Vector_2" d="M53.9732 33.75C53.9732 36.2812 51.9633 38.6156 48.5759 40.5C43.6565 43.2281 35.8135 45 26.9866 45C18.6095 45 11.1179 43.4109 6.15632 40.9078C5.88926 40.7812 5.63627 40.6406 5.38327 40.5C2.00994 38.6156 0 36.2812 0 33.75C0 27.5344 12.0878 22.5 26.9866 22.5C41.8855 22.5 53.9732 27.5344 53.9732 33.75ZM26.9866 49.5C34.8858 49.5 42.2509 48.1781 47.8028 45.8578C50.0939 44.9016 52.2303 43.7203 53.9732 42.2719V47.25C53.9732 49.7812 51.9633 52.1156 48.5759 54C48.3229 54.1406 48.0699 54.2672 47.8028 54.4078C42.8553 56.9109 35.3637 58.5 26.9866 58.5C18.1597 58.5 10.3168 56.7281 5.39732 54C2.00994 52.1156 0 49.7812 0 47.25V42.2719C1.75694 43.7203 3.87933 44.9016 6.17038 45.8578C11.7223 48.1781 19.0874 49.5 26.9866 49.5ZM47.8028 59.3578C50.0939 58.4016 52.2303 57.2203 53.9732 55.7719V60.75C53.9732 66.9656 41.8855 72 26.9866 72C12.0878 72 0 66.9656 0 60.75V55.7719C1.75694 57.2203 3.87933 58.4016 6.17038 59.3578C11.7223 61.6781 19.0874 63 26.9866 63C34.8858 63 42.2509 61.6781 47.8028 59.3578Z" fill="#E1E1E1"/>
</g>
<defs>
<clipPath id="clip0_16761_4482">
<rect width="65" height="72" fill="white"/>
</clipPath>
</defs>
</svg>
